<?xml version="1.0" encoding="utf-8"?>
<!-- Generator: Adobe Illustrator 22.0.0, SVG Export Plug-In . SVG Version: 6.00 Build 0)  -->
<svg version="1.1" id="Calque_1" xmlns="http://www.w3.org/2000/svg" xmlns:xlink="http://www.w3.org/1999/xlink" x="0px" y="0px"
	 viewBox="0 0 595.3 841.9" style="enable-background:new 0 0 595.3 841.9;" xml:space="preserve">
<style type="text/css">
	.st0{fill:#D40257;}
	.st1{fill:#F4E685;}
	.st2{fill:#282828;}
	.st3{fill:#FFFFFF;}
</style>
<g>
	<path class="st0" d="M412.1,529.4c-31,25.9-70.9,41.5-114.5,41.5s-83.5-15.6-114.5-41.5c65.1-11.7,114.5-68.7,114.5-137.1
		C297.6,460.7,347,517.7,412.1,529.4z"/>
	<g>
		<path class="st1" d="M576.3,393.1c-0.4,76.6-62.7,138.5-139.3,138.5c-8.5,0-16.8-0.8-24.9-2.2c-65.1-11.7-114.5-68.7-114.5-137.1
			c0,68.5-49.4,125.4-114.5,137.1c-8.1,1.5-16.4,2.2-24.8,2.2c-76.7,0-138.9-61.9-139.3-138.5c0.4-153.5,125-277.8,278.6-277.8
			S575.8,239.6,576.3,393.1z"/>
		<path class="st2" d="M281.6,392.3c0,59.7-42.6,110.8-101.3,121.3l7.4-1.3l5.7,4.8c3,2.5,6.1,5,9.3,7.3c0.4-0.1,0.7-0.2,1.1-0.4
			c2.9-1,5.7-2.1,8.5-3.3c41.7-17.6,73.1-55,82.4-100.3c1.9-9.1,2.8-18.5,2.8-28.1H281.6z M505.8,185.3
			c-55.7-55.5-129.5-86-208.1-86s-152.5,30.5-208.1,86C34.2,240.6,3.4,314.1,3,392.3c0,0.3,0,0.5,0,0.8v0.1
			c0.2,41.3,16.5,80.1,45.9,109.2c25.2,25,57.4,40.4,92.2,44.3c0.6,0.1,1.3,0.1,1.9,0.2c2.5,0.3,5.1,0.4,7.7,0.6
			c1.3,0.1,2.6,0.1,3.8,0.1c0.4,0,0.8,0,1.2,0c0.9,0,1.8,0,2.7,0c1.3,0,2.6,0,3.9,0c8-0.2,16-1.1,23.8-2.5c4.7-0.8,9.4-1.9,13.9-3.2
			c6.8-1.9,13.3-4.2,19.7-6.9c34.3-14.7,61.8-41.2,78-74c16.2,32.8,43.6,59.3,77.9,74c6.3,2.7,12.9,5,19.6,6.9
			c4.6,1.3,9.3,2.4,14.1,3.2c6.8,1.3,13.8,2,20.7,2.4c1.1,0,2.1,0.1,3.2,0.1c0.2,0,0.3,0,0.4,0c1.1,0,2.2,0,3.3,0c0.9,0,1.8,0,2.7,0
			c0.4,0,0.8,0,1.2,0c1.3,0,2.6-0.1,3.9-0.1c2.6-0.1,5.1-0.3,7.6-0.6c0.6-0.1,1.3-0.1,1.9-0.2c34.8-3.8,67.1-19.2,92.3-44.3
			c27-26.8,43-61.9,45.5-99.6c0,0,0-0.1,0-0.1c0.2-3.2,0.3-6.3,0.3-9.5v-0.1C592.2,314.6,561.4,240.8,505.8,185.3z M281.6,392.3
			c0,59.7-42.6,110.8-101.3,121.3c-7.2,1.3-14.6,2-22,2c-5.8,0-11.5-0.4-17.1-1.2c-1-0.1-2-0.3-3-0.5c-0.5-0.1-1-0.2-1.5-0.3
			c-1.5-0.3-3-0.6-4.5-0.9c-2-0.4-4-0.9-5.9-1.4c-50.3-13.6-88-58.3-91-112c-0.1-2-0.2-4.1-0.2-6.2V393
			c0.5-144.3,118.2-261.8,262.6-261.8c144.3,0,262.1,117.4,262.6,261.8c0,1.1,0,2.1-0.1,3.2c-2,66.1-56.6,119.5-123.2,119.5
			c-7.4,0-14.8-0.7-22-2c-1.4-0.3-2.8-0.5-4.1-0.8c-56.6-12.2-97.2-62.2-97.2-120.6H281.6z"/>
	</g>
	<path class="st2" d="M576.3,393l-16,0h-0.1c0,1.1,0,2.1-0.1,3.2c-2.1,66.2-56.7,119.4-123.2,119.4c-7.4,0-14.8-0.7-22-2l-4.1-0.7
		l-3.3-0.6l-5.7,4.8c-3,2.5-6.1,5-9.3,7.3c-5.4,3.9-11.1,7.5-16.9,10.6c-23.8,13-50.7,19.9-78,19.9c-27.3,0-54.2-6.9-77.9-19.9
		c-5.8-3.2-11.5-6.8-17-10.7c-3.2-2.3-6.3-4.7-9.3-7.3l-5.7-4.8l-7.4,1.3c-7.2,1.3-14.6,2-22,2c-5.8,0-11.5-0.4-17.1-1.2
		c-1-0.1-2-0.3-3-0.5c-0.5-0.1-1-0.2-1.5-0.3c-1.5-0.3-3-0.6-4.5-0.9c-2-0.4-4-0.9-5.9-1.4c-50.2-13.6-88-58.3-91-112
		c-0.1-2-0.2-4.1-0.2-6.2V393l-32,0.1v0.8c0,78.7,30.6,152.7,86.3,208.3c55.6,55.7,129.6,86.3,208.3,86.3s152.7-30.6,208.3-86.3
		c53.6-53.5,83.9-124,86.2-199.4c0,0,0-0.1,0-0.1c0.1-2.9,0.1-5.9,0.1-8.8v-0.8L576.3,393z M297.7,656.6
		c-100.4,0-187.8-56.6-232-139.6c20,15,43.2,24.7,67.9,28.6c0.5,0.1,0.9,0.2,1.4,0.2c0.7,0.1,1.4,0.2,2.1,0.3
		c1.4,0.2,2.7,0.4,4.1,0.5c0.6,0.1,1.3,0.1,1.9,0.2c2.5,0.3,5.1,0.4,7.7,0.6c1.3,0.1,2.6,0.1,3.8,0.1c0.4,0,0.8,0,1.2,0
		c0.9,0,1.8,0,2.7,0c1.3,0,2.6,0,3.9,0c5.5-0.1,11-0.5,16.4-1.3c34,26.2,75.9,40.6,119,40.6c43.1,0,85.1-14.4,119-40.6
		c4.4,0.6,8.9,1,13.3,1.2c1.1,0,2.1,0.1,3.2,0.1c0.2,0,0.3,0,0.4,0c1.1,0,2.2,0,3.3,0c0.9,0,1.8,0,2.7,0c0.4,0,0.8,0,1.2,0
		c1.3,0,2.6-0.1,3.9-0.1c2.6-0.1,5.1-0.3,7.6-0.6c0.6-0.1,1.3-0.1,1.9-0.2c1.4-0.2,2.7-0.3,4.1-0.5c0.7-0.1,1.4-0.2,2.1-0.3
		c0.5-0.1,0.9-0.1,1.4-0.2c24.7-3.9,47.8-13.7,67.8-28.6C485.5,600,398.1,656.6,297.7,656.6z"/>
	<path class="st3" d="M529.7,517c-44.2,83-131.6,139.6-232,139.6S109.9,600,65.7,517c22,16.5,47.9,26.7,75.4,29.7
		c0.6,0.1,1.3,0.1,1.9,0.2c2.5,0.3,5.1,0.4,7.7,0.6c1.3,0.1,2.6,0.1,3.8,0.1c0.4,0,0.8,0,1.2,0c0.9,0,1.8,0,2.7,0c1.3,0,2.6,0,3.9,0
		c5.5-0.1,11-0.5,16.4-1.3c34,26.2,75.9,40.6,119,40.6c43.1,0,85.1-14.4,119-40.6c4.4,0.6,8.9,1,13.3,1.2c1.1,0,2.1,0.1,3.2,0.1
		c0.2,0,0.3,0,0.4,0c1.1,0,2.2,0,3.3,0c0.9,0,1.8,0,2.7,0c0.4,0,0.8,0,1.2,0c1.3,0,2.6-0.1,3.9-0.1c2.6-0.1,5.1-0.3,7.6-0.6
		c0.6,0,1.3-0.1,1.9-0.2C481.8,543.7,507.7,533.5,529.7,517z"/>
	<rect x="3" y="392.3" class="st2" width="32" height="0.8"/>
	<rect x="560.3" y="392.3" class="st2" width="32" height="0.8"/>
	<g>
		<circle class="st3" cx="212" cy="299.9" r="30.5"/>
		<path class="st2" d="M212,333.4c-18.5,0-33.5-15-33.5-33.5s15-33.5,33.5-33.5s33.5,15,33.5,33.5S230.5,333.4,212,333.4z
			 M212,272.4c-15.2,0-27.5,12.3-27.5,27.5s12.3,27.5,27.5,27.5s27.5-12.3,27.5-27.5S227.2,272.4,212,272.4z"/>
	</g>
	<g>
		<circle class="st3" cx="383.6" cy="299.9" r="30.5"/>
		<path class="st2" d="M383.6,333.4c-18.5,0-33.5-15-33.5-33.5s15-33.5,33.5-33.5s33.5,15,33.5,33.5S402.1,333.4,383.6,333.4z
			 M383.6,272.4c-15.2,0-27.5,12.3-27.5,27.5s12.3,27.5,27.5,27.5s27.5-12.3,27.5-27.5S398.8,272.4,383.6,272.4z"/>
	</g>
	<circle class="st2" cx="219" cy="308.9" r="8"/>
	<circle class="st2" cx="153.5" cy="453" r="8"/>
	<circle class="st2" cx="153.5" cy="413" r="8"/>
	<circle class="st2" cx="133.5" cy="433" r="8"/>
	<circle class="st2" cx="173.5" cy="433" r="8"/>
	<circle class="st2" cx="442.1" cy="453" r="8"/>
	<circle class="st2" cx="442.1" cy="413" r="8"/>
	<circle class="st2" cx="422.1" cy="433" r="8"/>
	<circle class="st2" cx="462.1" cy="433" r="8"/>
	<circle class="st2" cx="391.6" cy="308.9" r="8"/>
</g>
</svg>
